<?xml version="1.0" encoding="UTF-8"?>
<svg version="1.1" viewBox="0 0 2048 2048" width="128" height="128" xmlns="http://www.w3.org/2000/svg">
<path transform="translate(0)" d="m0 0h2048v2048h-2048z" fill="#FEFEFE"/>
<path transform="translate(760,1144)" d="m0 0h28l18 3 15 5 13 8 10 9 10 11 12 17 8 16 5 19 2 11v25l-2 15-4 12-9 14-11 14-11 9-8 7-18 10-15 6-19 4h-24l-14-3-9-3-16-7-9-6-10-8-12-12-10-13-7-14-4-16-2-12v-25l4-20 4-14 7-13 9-12 7-8 11-9 10-7 13-7 15-4z" fill="#D3283E"/>
<path transform="translate(499,1147)" d="m0 0h98l16 1 16 4 8 7 7 10 5 11 4 14 2 17v45l-5 7-6 4-2 6-1 9 3 12 7 20 3 10 3 26v6l-1 1-18-1-26-1-9-3-6-9-9-24-4-5v-2l-4-2-11-7-6-1-10 4-2 7 1 25v14l-5 4-2 1-18-1-26-1-4-2-1-204z" fill="#D3283E"/>
<path transform="translate(1066,1146)" d="m0 0h4l-3 12-4 10-5 12-4 12-16 40-7 21-7 19-7 18-10 29-6 15-9 16-5 5-41-2-10-4-4-8-4-10-6-16-11-28-6-17-7-23-6-22-8-23-6-15-8-18-7-15v-6l4-1h50l5 3 4 8 9 25 16 41 7 19 4 9 6 9 3 1 3-11 12-39 8-24 5-11 6-16 4-9 4-4 4-1z" fill="#D3283E"/>
<path transform="translate(765,1202)" d="m0 0 17 1 12 4 11 6 8 7 5 8 3 8 2 12v11l-4 12-7 11-10 9-16 9-5 1h-17l-10-3-10-6-7-7-6-9-6-15-2-11 1-11 6-11 7-11 16-11z" fill="#FEFEFE"/>
<path transform="translate(566,1200)" d="m0 0h16l9 3 5 4 2 4v20l-2 8-6 5-10 3-5 1h-9l-8-3-3-3-3-8-1-7v-20l5-4z" fill="#FEFEFE"/>
</svg>
